<svg xmlns="http://www.w3.org/2000/svg" width="787.998" height="108">
  <path data-name="log" d="M122.497 107.998a1.5 1.5 0 010-3h300a1.5 1.5 0 010 3zm-121 0a1.5 1.5 0 010-3h100a1.5 1.5 0 010 3zm121-42a1.5 1.5 0 010-3h165a1.5 1.5 0 110 3zm-121 0a1.5 1.5 0 010-3h100a1.5 1.5 0 010 3zm121-21a1.5 1.5 0 010-3h664a1.5 1.5 0 010 3zm-121 0a1.5 1.5 0 010-3h100a1.5 1.5 0 010 3zm121-42a1.5 1.5 0 010-3h377a1.5 1.5 0 110 3zm-121 0a1.5 1.5 0 010-3h100a1.5 1.5 0 010 3z" fill="#384161"/>
  <path data-name="log" d="M122.502 86.998a1.5 1.5 0 110-3h228a1.5 1.5 0 010 3zm-121 0a1.5 1.5 0 010-3h100a1.5 1.5 0 010 3zm121-63a1.5 1.5 0 110-3h588a1.5 1.5 0 010 3zm-121 0a1.5 1.5 0 110-3h100a1.5 1.5 0 110 3z" fill="#a4adcd"/>
</svg>